<svg version="1.2" 
	 xmlns="http://www.w3.org/2000/svg" xmlns:xlink="http://www.w3.org/1999/xlink" x="0px" y="0px" viewBox="0 0 646 646"
	 overflow="visible" xml:space="preserve">
<g>
	<path fill="#F9CB00" stroke="#000000" stroke-width="5" stroke-miterlimit="10" d="M196.8,102.6h251.1c12.1,0,21.8,9.8,21.8,21.8
		v393.7c0,12.1-9.8,21.8-21.8,21.8H196.8c-12.1,0-21.8-9.8-21.8-21.8V124.5C175,112.4,184.8,102.6,196.8,102.6z"/>
	<path fill="#F9CB00" stroke="#000000" stroke-width="2" stroke-miterlimit="10" d="M208.4,127.2h226.2c7.6,0,13.9,6.2,13.9,13.9
		v363.2c0,7.6-6.2,13.9-13.9,13.9H208.4c-7.6,0-13.9-6.2-13.9-13.9V141C194.5,133.4,200.7,127.2,208.4,127.2z"/>
	<path fill="#6C272D" stroke="#9E005D" stroke-width="2" stroke-miterlimit="10" d="M208.4,127.2h226.2c7.6,0,13.9,6.2,13.9,13.9
		v181c0,7.6-6.2,13.9-13.9,13.9H208.4c-7.6,0-13.9-6.2-13.9-13.9V141C194.5,133.4,200.7,127.2,208.4,127.2z"/>
	<path fill="#ED1C24" d="M263.8,186.7c0-2,0.7-3.8,2-5.1s3.1-2,5.1-2h90.7c2,0,3.6,0.7,5,2s2,3.1,2,5.1v95.7c0,2-0.7,3.6-2,5
		c-1.4,1.4-3,2.1-5,2.1h-3.5c-1.2,0-2.3-0.5-3.3-1.4s-1.4-2-1.4-3.4c0-0.4-0.2-0.6-0.6-0.6H279c-0.4,0-0.6,0.2-0.6,0.6
		c0,1.3-0.5,2.5-1.4,3.4c-0.9,1-2,1.4-3.3,1.4h-2.8c-2,0-3.8-0.7-5.1-2.1c-1.4-1.4-2-3.1-2-5L263.8,186.7L263.8,186.7z M278.4,269.8
		c0,0.5,0.3,0.9,0.9,0.9h73.3c0.5,0,0.9-0.3,0.9-0.9v-75.9c0-0.5-0.3-0.9-0.9-0.9h-73.3c-0.5,0-0.9,0.3-0.9,0.9V269.8L278.4,269.8z
		 M346.9,212.1c1.2,1.2,1.8,2.6,1.8,4.3c0,1.7-0.6,3.1-1.8,4.4s-2.7,1.8-4.3,1.8h-13.9c-0.3,0-0.4,0.1-0.5,0.3
		c-0.1,0.2-0.1,0.3,0,0.5c4.8,8.7,10.5,16,17.2,21.6c1.6,1.3,2.3,3,2.3,5c0,1.6-0.5,2.9-1.6,4c0,0.1-0.1,0.1-0.1,0.3
		c-1.2,1.5-2.8,2.3-4.6,2.6h-0.9c-1.5,0-2.8-0.5-4-1.7c-5-5-9.6-11.3-13.6-19c-0.1-0.1-0.2-0.1-0.3-0.1s-0.2,0.1-0.2,0.2v23.5
		c0,1.9-0.6,3.5-1.9,4.8c-1.3,1.3-2.9,2-4.7,2c-1.9,0-3.5-0.7-4.8-2c-1.3-1.3-2-2.9-2-4.8v-23c0-0.1-0.1-0.1-0.2-0.2s-0.2,0-0.3,0.1
		c-4.2,7.9-9,14.5-14.3,19.6c-1.2,1.1-2.5,1.6-4,1.6h-0.8c-1.9-0.1-3.4-1-4.6-2.5c-1-1.2-1.5-2.5-1.5-4c0-2,0.7-3.5,2.1-4.8
		c6.8-6,12.6-13.8,17.2-23.3c0.1-0.1,0.1-0.3,0-0.5s-0.2-0.3-0.3-0.3H290c-1.7,0-3.1-0.6-4.4-1.8c-1.2-1.2-1.8-2.7-1.8-4.4
		c0-1.7,0.6-3.1,1.8-4.3c1.2-1.2,2.7-1.8,4.4-1.8H308c0.5,0,0.9-0.3,0.9-1v-6.6c0-1.9,0.7-3.5,2-4.8c1.3-1.3,2.9-2,4.8-2
		s3.5,0.7,4.7,2s1.9,2.9,1.9,4.8v6.6c0,0.7,0.3,1,1,1h19.3C344.2,210.4,345.6,211,346.9,212.1L346.9,212.1z"/>
</g>
</svg>
